<svg id="Capa_1" enable-background="new 0 0 510 510" height="512" viewBox="0 0 510 510" width="512" xmlns="http://www.w3.org/2000/svg"><g id="XMLID_156_"><path id="XMLID_194_" d="m135 418.577-30 10-30-10v-180l30-10 30 10z" fill="#ece6f2"/><path id="XMLID_193_" d="m435 418.577-30 10-30-10v-180l30-10 30 10z" fill="#cfcfe6"/><path id="XMLID_192_" d="m165 208.577-60 10-60-10v-30l60-10 60 10z" fill="#ece6f2"/><path id="XMLID_191_" d="m465 208.577-60 10-60-10v-30l60-10 60 10z" fill="#b9bed9"/><path id="XMLID_189_" d="m45 208.577h120v30h-120z" fill="#fff5f5"/><path id="XMLID_188_" d="m15 133.577v45h240l10-67.501-10-109.653z" fill="#ff8066"/><path id="XMLID_186_" d="m495 133.577-240-132.154v177.154h240z" fill="#ff4d4d"/><g id="XMLID_183_"><path id="XMLID_185_" d="m0 418.577v60h255l10-30-10-30z" fill="#004c9c"/><path id="XMLID_184_" d="m255 418.577h255v60h-255z" fill="#00366d"/></g><path id="XMLID_182_" d="m0 478.577v30h255l10-15-10-15z" fill="#ece6f2"/><path id="XMLID_181_" d="m255 478.577h255v30h-255z" fill="#cfcfe6"/><path id="XMLID_173_" d="m216.818 350.395c0 21.088 17.095 38.183 38.182 38.183l10-38.255-10-66.745c0-.001-38.182 45.73-38.182 66.817z" fill="#ff8066"/><path id="XMLID_172_" d="m255 283.577v105c21.087 0 38.182-17.095 38.182-38.183 0-21.086-38.182-66.817-38.182-66.817z" fill="#ff4d4d"/><path id="XMLID_165_" d="m240 73.577v22.5h-22.5v30h22.5v22.5h15l10-37.5-10-37.5z" fill="#fff5f5"/><g fill="#ece6f2"><path id="XMLID_164_" d="m270 96.077v-22.5h-15v75h15v-22.5h22.5v-30z"/><path id="XMLID_161_" d="m345 208.577h120v30h-120z"/></g></g></svg>