<svg id="Capa_1" enable-background="new 0 0 512.151 512.151" height="512" viewBox="0 0 512.151 512.151" width="512" xmlns="http://www.w3.org/2000/svg"><g><path d="m159.55 29.679 96.128 96.381-132.176 131.923-96.128-96.128c-36.499-36.499-36.499-95.677 0-132.176 36.511-36.511 95.677-36.499 132.176 0z" fill="#86bfec"/><path d="m159.55 29.679 96.128 96.381-66.088 65.835-162.201-162.231c36.521-36.49 95.663-36.483 132.161.015z" fill="#69b0e8"/><path d="m484.77 161.675-96.128 96.128-132.964-131.743 96.915-96.562c36.51-36.51 95.649-36.514 132.17-.021 36.406 36.378 36.624 95.581.007 132.198z" fill="#e6ffff"/><path d="m255.663 334.789c0 27.714-24.01 48.463-48.02 47.05-25.45-.54-45.98-21.44-45.98-47.05s20.53-46.51 45.98-47.05c23.819-1.402 48.02 19.114 48.02 47.05z" fill="#ff6426"/><path d="m255.663 334.789c0 27.714-24.01 48.463-48.02 47.05 0-101.217-.506-94.12 1.02-94.12 25.91 0 47 21.12 47 47.07z" fill="#cf3b00"/><path d="m382.663 414.899c0 25.856-20.98 47.07-47.02 47.07-25.91-.01-46.98-21.12-46.98-47.07 0-25.94 21.07-47.05 46.98-47.06 25.927 0 47.02 21.101 47.02 47.06z" fill="#ff6426"/><path d="m382.663 414.899c0 25.856-20.98 47.07-47.02 47.07 0-96.249-.08-94.13.02-94.13 25.91 0 47 21.11 47 47.06z" fill="#cf3b00"/><path d="m231.66 253.672c-8.208 0-15-6.712-15-15.022 0-8.624 7.375-15.788 16.48-14.952 8.443.886 14.273 8.398 13.45 16.434-.822 7.923-7.445 13.54-14.93 13.54z" fill="#4d578c"/><path d="m311.66 293.729c-8.262 0-15-6.769-15-15.022 0-8.65 7.402-15.785 16.479-14.952 8.429.884 14.282 8.399 13.45 16.423-.803 7.922-7.45 13.551-14.929 13.551z" fill="#303a6d"/><path d="m391.66 510.039c-8.26 0-15-6.767-15-15.022 0-8.637 7.391-15.786 16.479-14.952 8.384.879 14.268 8.368 13.45 16.434-.813 7.848-7.373 13.54-14.929 13.54z" fill="#303a6d"/><path d="m279.66 510.039c-8.245 0-15-6.751-15-15.022 0-9.018 7.883-15.831 16.479-14.952 8.369.877 14.271 8.345 13.45 16.434-.803 7.755-7.317 13.54-14.929 13.54z" fill="#303a6d"/><g fill="#4d578c"><path d="m231.66 445.947c-8.262 0-15-6.769-15-15.022 0-8.58 7.335-15.791 16.48-14.952 8.499.892 14.281 8.48 13.45 16.423-.802 7.902-7.427 13.551-14.93 13.551z"/><path d="m151.66 421.913c-8.208 0-15-6.712-15-15.022 0-8.958 7.827-15.837 16.48-14.952 8.43.885 14.26 8.355 13.44 16.434-.62 7.432-7.083 13.54-14.92 13.54z"/><path d="m175.66 510.039c-8.24 0-15-6.748-15-15.022 0-8.595 7.35-15.79 16.48-14.952 8.553.898 14.262 8.508 13.45 16.434-.807 7.786-7.308 13.54-14.93 13.54z"/></g><path d="m484.77 161.675-96.128 96.128-66.089-66.089 162.224-162.223c36.499 36.499 36.499 95.678-.007 132.184z" fill="#d9f2ff"/></g></svg>