<svg height="512" viewBox="0 0 64 64" width="512" xmlns="http://www.w3.org/2000/svg"><g id="hospital-service-infirmary-sanatorium-sanitarium"><path d="m49 22h12v4h-12z" fill="#bddbff"/><path d="m61 61h-58l2-1.71 2.75-2.36a7.975 7.975 0 0 1 5.21-1.93h38.08a7.975 7.975 0 0 1 5.21 1.93l2.75 2.36z" fill="#bddbff"/><path d="m20 29h24v4h-24z" fill="#bddbff"/><path d="m20 21h24v4h-24z" fill="#bddbff"/><path d="m25 12 .27-.07a7 7 0 0 0 13.46 0l.27.07h12v-4h-12l-.27.07a7 7 0 0 0 -13.46 0l-.27-.07h-12v4z" fill="#bddbff"/><path d="m3 22h12v4h-12z" fill="#bddbff"/><g fill="#57a4ff"><path d="m61 27a1 1 0 0 0 1-1v-4a1 1 0 0 0 -1-1h-11v-8h1a1 1 0 0 0 1-1v-4a1 1 0 0 0 -1-1h-11.59a7.991 7.991 0 0 0 -14.82 0h-11.59a1 1 0 0 0 -1 1v4a1 1 0 0 0 1 1h1v8h-11a1 1 0 0 0 -1 1v4a1 1 0 0 0 1 1h1v31.83l-1.65 1.41a1 1 0 0 0 .65 1.76h58a1 1 0 0 0 .65-1.76l-1.65-1.41v-31.83zm-21.07-18h10.07v2h-10.07a8.258 8.258 0 0 0 .07-1 8.258 8.258 0 0 0 -.07-1zm10.07 18h8v30.11l-1.1-.94a9 9 0 0 0 -5.86-2.17h-1.04zm-18-23a6 6 0 1 1 -6 6 6 6 0 0 1 6-6zm0 14a8 8 0 0 0 7.41-5h8.59v41h-4v-17a1 1 0 0 0 -1-1h-22a1 1 0 0 0 -1 1v17h-4v-41h8.59a8 8 0 0 0 7.41 5zm10 20v16h-9v-16zm-11 0v16h-9v-16zm-17-29h10.07a8.258 8.258 0 0 0 -.07 1 8.258 8.258 0 0 0 .07 1h-10.07zm-10 14h10v2h-10zm10 4v27h-1.04a9 9 0 0 0 -5.86 2.17l-1.1.94v-30.11zm-8.3 33 2.7-2.31a7.007 7.007 0 0 1 4.56-1.69h38.08a7.007 7.007 0 0 1 4.56 1.69l2.7 2.31zm44.3-35v-2h10v2z"/><path d="m8 31h4v2h-4z"/><path d="m8 37h4v2h-4z"/><path d="m8 43h4v2h-4z"/><path d="m8 48h4v2h-4z"/><path d="m52 31h4v2h-4z"/><path d="m52 37h4v2h-4z"/><path d="m52 43h4v2h-4z"/><path d="m52 48h4v2h-4z"/><path d="m35 45h2v2h-2z"/><path d="m27 45h2v2h-2z"/><path d="m36 9v2h-3v3h-2v-3h-3v-2h3v-3h2v3z"/><path d="m44 20h-24a1 1 0 0 0 -1 1v4a1 1 0 0 0 1 1h24a1 1 0 0 0 1-1v-4a1 1 0 0 0 -1-1zm-1 4h-22v-2h22z"/><path d="m44 28h-24a1 1 0 0 0 -1 1v4a1 1 0 0 0 1 1h24a1 1 0 0 0 1-1v-4a1 1 0 0 0 -1-1zm-1 4h-22v-2h22z"/></g></g></svg>