<svg id="Capa_1" enable-background="new 0 0 510 510" height="512" viewBox="0 0 510 510" width="512" xmlns="http://www.w3.org/2000/svg"><g><g id="XMLID_1504_"><path id="XMLID_1507_" d="m464.4 266.8c-7.2-90.4-82.8-161.8-175.4-161.8-17.1 0-31.9 0-49 0l-10 45 10 45h44.5c44 0 80.7 31.4 88.8 73.1z" fill="#cfcfe6"/><path id="XMLID_1510_" d="m158.8 330 21.2 21.2 10-10.6-10-10.6-10.6-10z" fill="#004c9c"/><path id="XMLID_1513_" d="m231.2 360c-1.6-1.6 2.2 2.2-30-30l-10.6-10-10.6 10v21.2c2.5 2.5-11.1-11.1 38.8 38.8h111.2l15-15-15-15c-14.1 0-84.6 0-98.8 0z" fill="#00366d"/><path id="XMLID_1516_" d="m180 330c-20.2 0-63.2 0-75 0 0-10.5 0-19.5 0-30h75l10 15z" fill="#fff5f5"/><path id="XMLID_1519_" d="m255 330c-20.2 0-63.2 0-75 0 0-10.5 0-19.5 0-30h75z" fill="#ece6f2"/><path id="XMLID_1522_" d="m180 270c-5.2 0-9.8 0-15 0 0-10.5 0-19.5 0-30l7.5-10 7.5 10 10 15z" fill="#00366d"/><path id="XMLID_1525_" d="m195 270c-5.2 0-9.8 0-15 0 0-10.5 0-19.5 0-30l7.5-10 7.5 10z" fill="#01223c"/><path id="XMLID_4966_" d="m180 165-30 10-30-10c0-20.2 0-63.2 0-75l30-10 30 10 10 37.5z" fill="#fff5f5"/><path id="XMLID_4963_" d="m240 165-30 10-30-10c0-20.2 0-63.2 0-75l30-10 30 10z" fill="#ece6f2"/><path id="XMLID_4960_" d="m180 60-15 10-15-10c0-7.3 0-52.7 0-60h30l10 30z" fill="#004c9c"/><path id="XMLID_4957_" d="m210 60-15 10-15-10c0-7.3 0-52.7 0-60h30z" fill="#00366d"/><path id="XMLID_4954_" d="m180 90c-7.3 0-52.7 0-60 0 0-10.5 0-19.5 0-30h60l10 15z" fill="#ece6f2"/><path id="XMLID_4951_" d="m240 90c-7.3 0-52.7 0-60 0 0-10.5 0-19.5 0-30h60z" fill="#cfcfe6"/><path id="XMLID_4948_" d="m180 210-30 10-30-10c0-15 0-30 0-45h60l10 22.5z" fill="#7ed8f6"/><path id="XMLID_4945_" d="m180 240c-7.3 0-52.7 0-60 0 0-10.5 0-19.5 0-30h60l10 15z" fill="#004c9c"/><path id="XMLID_4942_" d="m240 210-30 10-30-10c0-15 0-30 0-45h60z" fill="#6aa9ff"/><path id="XMLID_4939_" d="m240 240c-7.3 0-52.7 0-60 0 0-10.5 0-19.5 0-30h60z" fill="#00366d"/><path id="XMLID_1526_" d="m510 435-90 10-90-10c0-10.9 0-79 0-90 0-49.6 40.4-90 90-90s90 40.4 90 90z" fill="#b9bed9"/><path id="XMLID_1545_" d="m180 480-90 10-90-10c0-15 0-30 0-45h180l10 22.5z" fill="#7ed8f6"/><path id="XMLID_1551_" d="m180 510c-10 0-170 0-180 0 0-10.5 0-19.5 0-30h180l10 15z" fill="#6aa9ff"/><path id="XMLID_1557_" d="m510 480-165 10-165-10c0-15 0-30 0-45h330z" fill="#6aa9ff"/><path id="XMLID_1563_" d="m510 510c-18.3 0-311.7 0-330 0 0-10.5 0-19.5 0-30h330z" fill="#4895ff"/></g><path d="m405 345h30.1v30.1h-30.1z" fill="#004c9c"/></g></svg>