<?xml version="1.0" encoding="iso-8859-1"?>
<!-- Generator: Adobe Illustrator 19.0.0, SVG Export Plug-In . SVG Version: 6.00 Build 0)  -->
<svg version="1.1" id="Capa_1" xmlns="http://www.w3.org/2000/svg" xmlns:xlink="http://www.w3.org/1999/xlink" x="0px" y="0px"
	 viewBox="0 0 512 512" style="enable-background:new 0 0 512 512;" xml:space="preserve">
<g>
	<g>
		<g>
			<path d="M280.977,422.2c0-12.586-10.239-22.824-22.824-22.824c-12.586,0-22.824,10.239-22.824,22.824
				c0,12.586,10.239,22.824,22.824,22.824C270.738,445.024,280.977,434.785,280.977,422.2z M250.329,422.2
				c0-4.314,3.51-7.823,7.823-7.823s7.823,3.509,7.823,7.823c0,4.313-3.51,7.823-7.823,7.823S250.329,426.513,250.329,422.2z"/>
			<path d="M467.324,260.067c14.338-22.96,14.469-51.937-0.031-75.165l-47.289-75.749c-0.001-0.001-0.002-0.003-0.003-0.005
				c-0.001-0.001-0.002-0.003-0.003-0.005l-47.289-75.75C351.971,0.174,308.07-9.98,274.852,10.757
				c-16.093,10.047-27.31,25.758-31.586,44.241c-0.813,3.513-1.352,7.047-1.63,10.577c-18.5-0.901-36.555,5.4-50.581,17.89
				l-66.69,59.388c-0.001,0.001-0.002,0.002-0.003,0.002c-0.001,0.001-0.002,0.002-0.002,0.002l-66.691,59.389
				c-14.167,12.617-22.572,29.996-23.67,48.935c-1.097,18.94,5.248,37.172,17.864,51.339c5.896,6.62,12.856,12.008,20.686,16.011
				c1.094,0.559,2.259,0.824,3.408,0.824c2.727,0,5.357-1.493,6.684-4.087c1.886-3.688,0.425-8.206-3.264-10.093
				c-6.168-3.153-11.657-7.403-16.312-12.631c-20.543-23.068-18.488-58.55,4.581-79.094l61.092-54.403l57.888,65.004
				c-6.4,0.765-12.737,2.394-18.854,4.928c-17.526,7.259-31.178,20.911-38.437,38.438c-5.338,12.888-6.736,26.735-4.224,40.132
				c-4.996,1.935-10.238,3.139-15.65,3.576c-4.129,0.334-7.205,3.951-6.871,8.08c0.317,3.923,3.599,6.896,7.468,6.896
				c0.202,0,0.407-0.008,0.612-0.025c6.464-0.523,12.734-1.921,18.739-4.132c7.278,17.444,20.893,31.031,38.362,38.267
				l77.342,32.036c1.633,0.676,3.326,0.997,4.992,0.997c5.139,0,10.025-3.045,12.111-8.081l4.322-10.436
				c3.194,1.755,6.825,2.731,10.595,2.731c12.176,0,22.08-9.906,22.08-22.081c0-10.023-6.716-18.503-15.883-21.189l16.779-40.507
				l26.482,63.935c-10.99,2.987-19.098,13.048-19.098,24.97c0,14.269,11.609,25.877,25.877,25.877
				c11.203,0,20.849-7.065,24.406-17.323l74.67-30.929c36.181-14.987,53.424-56.615,38.437-92.796
				C469.835,264.879,468.635,262.435,467.324,260.067z M139.941,149.072l61.092-54.403c11.349-10.107,26.048-15.066,41.045-14.031
				c1.339,9.814,4.735,19.324,10.137,27.977l34.736,55.642c-2.999,5.266-6.814,9.997-11.406,14.086l-55.82,49.709
				c-4.092-1.527-8.268-2.662-12.49-3.411L139.941,149.072z M284.214,355.378c0,3.904-3.176,7.08-7.079,7.08
				c-1.781,0-3.461-0.691-4.743-1.857l5.089-12.286C281.223,348.498,284.214,351.591,284.214,355.378z M249.09,377.658
				l-75.577-31.305c-28.539-11.822-42.14-44.657-30.319-73.196c11.822-28.538,44.657-42.14,73.196-30.319l75.577,31.305
				L249.09,377.658z M300.111,261.317c-0.212-0.101-0.419-0.211-0.638-0.301l-64.298-26.633l50.348-44.837
				c3.827-3.408,7.222-7.176,10.192-11.253l42.066,67.384l-37.031,15.339C300.53,261.105,300.323,261.216,300.111,261.317z
				 M333.373,393.463c-5.997,0-10.877-4.879-10.877-10.877c0-5.686,4.388-10.36,9.955-10.83l5.553,13.407
				c0.781,1.885,1.954,3.491,3.386,4.763C339.396,392.115,336.535,393.463,333.373,393.463z M457.027,316.034
				c-5.727,13.825-16.494,24.592-30.319,30.319l-75.577,31.305l-42.877-103.514l75.577-31.305c13.825-5.727,29.052-5.727,42.877,0
				c10.442,4.325,19.134,11.529,25.233,20.749c0.091,0.158,0.19,0.311,0.293,0.463c1.849,2.857,3.462,5.895,4.793,9.106
				C462.754,286.982,462.754,302.21,457.027,316.034z M457.643,246.581c-6.914-7.551-15.453-13.567-25.194-17.602
				c-17.526-7.26-36.832-7.26-54.358,0l-26.259,10.877l-35.627-57.069l56.264-35.125c3.514-2.193,4.584-6.82,2.391-10.334
				c-2.194-3.514-6.82-4.584-10.335-2.39l-56.264,35.125l-43.32-69.392c-5.117-8.197-7.96-17.367-8.435-26.76
				c0-0.213-0.009-0.425-0.027-0.634c-0.193-4.945,0.258-9.945,1.403-14.898c3.373-14.579,12.221-26.972,24.914-34.897
				c26.203-16.358,60.83-8.347,77.188,17.855l43.32,69.393l-8.89,5.55c-3.514,2.193-4.584,6.82-2.391,10.335
				c1.423,2.278,3.868,3.529,6.369,3.529c1.356,0,2.729-0.368,3.965-1.139l8.889-5.549l43.32,69.392
				C464.864,209.339,465.807,229.507,457.643,246.581z"/>
			<path d="M322.338,417.7c-12.176,0-22.08,9.906-22.08,22.08c0,12.176,9.904,22.081,22.08,22.081s22.081-9.906,22.081-22.081
				C344.419,427.605,334.514,417.7,322.338,417.7z M322.338,446.86c-3.903,0-7.079-3.176-7.079-7.08
				c0-3.903,3.176-7.079,7.079-7.079c3.904,0,7.08,3.176,7.08,7.079C329.419,443.684,326.242,446.86,322.338,446.86z"/>
			<path d="M277.134,457.627c-14.99,0-27.185,12.196-27.185,27.186S262.144,512,277.134,512c14.991,0,27.187-12.196,27.187-27.186
				C304.32,469.823,292.125,457.627,277.134,457.627z M277.134,496.999c-6.719,0-12.186-5.466-12.186-12.186
				s5.466-12.186,12.186-12.186s12.187,5.466,12.187,12.186C289.319,491.533,283.852,496.999,277.134,496.999z"/>
		</g>
	</g>
</g>
<g>
</g>
<g>
</g>
<g>
</g>
<g>
</g>
<g>
</g>
<g>
</g>
<g>
</g>
<g>
</g>
<g>
</g>
<g>
</g>
<g>
</g>
<g>
</g>
<g>
</g>
<g>
</g>
<g>
</g>
</svg>
