<svg id="Layer_1" enable-background="new 0 0 512.178 512.178" height="512" viewBox="0 0 512.178 512.178" width="512" xmlns="http://www.w3.org/2000/svg"><g id="XMLID_772_"><g id="XMLID_2296_"><path id="XMLID_1907_" d="m306.726 214.721-27.215 100.865c-5.595 20.852-27.321 32.839-48.146 27.141-.139-.038.139.037 0 0-43.181-11.573-87.932 14.091-99.501 57.27v.001c-11.57 43.18 14.147 87.723 57.326 99.293 6.986 1.872 14.073 2.798 21.116 2.798 13.988 0 27.797-3.654 40.248-10.806 17.427-10.011 30.291-26.401 36.647-45.468l62.01-231.313zm-58.248 216.524c-2.741 10.232-9.304 18.784-18.476 24.079-9.173 5.295-19.86 6.703-30.091 3.962-21.121-5.66-33.699-27.447-28.041-48.568v.001c5.66-21.122 27.446-33.698 48.567-28.041 21.122 5.659 33.7 27.446 28.041 48.567z" fill="#a0c8ff"/><g id="XMLID_2319_"><g id="XMLID_2320_"><g id="XMLID_2323_"><path id="XMLID_2324_" d="m360.955 10.089c22.638 33.583 29.609 75.328 19.113 114.444l-23.642 90.188h-49.7z" fill="#dfedff"/></g></g></g><path id="XMLID_1298_" d="m499.406 399.998c-11.569-43.18-56.32-68.844-99.501-57.271-.139.037.139-.038 0 0-20.824 5.698-42.551-6.289-48.146-27.141l-27.215-100.865-42.486-.219 62.01 231.313c6.356 19.067 19.219 35.457 36.647 45.468 12.45 7.152 26.26 10.806 40.248 10.806 7.044 0 14.13-.926 21.116-2.798 43.179-11.569 68.897-56.112 57.327-99.293zm-68.047 59.288c-10.231 2.741-20.918 1.333-30.091-3.962-9.172-5.295-15.735-13.847-18.476-24.079-5.658-21.12 6.919-42.908 28.041-48.567 21.121-5.657 42.908 6.919 48.567 28.041v-.001c5.658 21.12-6.92 42.908-28.041 48.568z" fill="#a0c8ff"/><g id="XMLID_2303_"><g id="XMLID_2304_"><g id="XMLID_2307_"><path id="XMLID_2308_" d="m270.314 10.089c-22.638 33.583-29.609 75.328-19.113 114.444l23.642 90.188h49.7z" fill="#dfedff"/></g></g></g></g><g id="XMLID_591_"><path id="XMLID_673_" d="m46 313.644h48v56h-48z" fill="#ffcd69" transform="matrix(-1 0 0 -1 140.001 683.288)"/><path id="XMLID_667_" d="m22 90.089h96v223.555h-96z" fill="#ffcd69" transform="matrix(-1 0 0 -1 140.001 403.734)"/><path id="XMLID_862_" d="m46 10.089h48v80h-48z" fill="#dfedff" transform="matrix(-1 0 0 -1 140.001 100.179)"/></g><g id="XMLID_871_"><path id="XMLID_908_" d="m223.024 373.018c-26.442-7.084-53.728 8.667-60.813 35.111-7.085 26.448 8.666 53.729 35.112 60.815 4.277 1.146 8.618 1.713 12.932 1.713 8.604 0 17.096-2.257 24.747-6.674 11.487-6.632 19.704-17.34 23.136-30.151 7.086-26.447-8.666-53.728-35.114-60.814zm15.795 55.639c-2.05 7.651-6.957 14.046-13.817 18.007-6.858 3.96-14.849 5.014-22.503 2.963-15.794-4.232-25.201-20.525-20.97-36.32 3.546-13.234 15.56-21.982 28.653-21.982 2.532 0 5.107.327 7.667 1.013 15.795 4.231 25.202 20.524 20.97 36.319z"/><path id="XMLID_918_" d="m408.244 373.018c-12.795 3.428-23.497 11.648-30.135 23.146-6.638 11.496-8.405 24.874-4.977 37.669 3.432 12.811 11.647 23.519 23.135 30.151 7.652 4.418 16.144 6.674 24.748 6.674 4.313 0 8.654-.566 12.932-1.713 12.795-3.428 23.497-11.648 30.135-23.146 6.638-11.496 8.405-24.874 4.977-37.669-7.086-26.445-34.362-42.203-60.815-35.112zm38.518 62.782c-3.967 6.87-10.355 11.78-17.99 13.826-7.651 2.05-15.645.996-22.504-2.963-6.859-3.961-11.767-10.355-13.816-18.007-2.046-7.635-.988-15.623 2.979-22.494 3.967-6.87 10.355-11.78 17.989-13.826 2.561-.686 5.135-1.013 7.668-1.013 13.094 0 25.107 8.749 28.653 21.981 2.045 7.637.988 15.625-2.979 22.496z"/><path id="XMLID_921_" d="m509.064 397.41c-6.286-23.464-21.362-43.091-42.45-55.267-21.091-12.177-45.872-15.352-69.313-9.07-7.603 2.08-15.76 1.153-22.531-2.731-6.63-3.804-11.373-9.964-13.357-17.359l-14.17-52.517 9.587-35.761c4.375-.176 8.15-3.181 9.268-7.447l23.628-90.132c11.252-41.931 3.787-86.626-20.479-122.626-2.192-3.253-6.088-4.916-9.954-4.271-3.869.652-6.999 3.507-8.004 7.3l-35.654 134.54-35.655-134.541c-1.005-3.793-4.135-6.647-8.004-7.3-3.865-.651-7.761 1.019-9.954 4.271-24.267 36-31.731 80.695-20.494 122.57l23.643 90.188c1.118 4.266 4.894 7.271 9.269 7.447l9.587 35.76-14.174 52.531c-1.981 7.383-6.724 13.544-13.354 17.347-6.771 3.885-14.922 4.812-22.515 2.736-23.464-6.289-48.239-3.11-69.329 9.066-21.088 12.176-36.164 31.804-42.45 55.268-12.996 48.506 15.892 98.543 64.397 111.54 7.771 2.083 15.747 3.139 23.704 3.139 15.769 0 31.408-4.196 45.229-12.135 19.271-11.07 33.971-29.461 41.238-51.264.063-.189-.052.192 0 0l18.861-70.32 18.861 70.32c.052.192-.063-.189 0 0 7.268 21.804 21.969 40.193 41.239 51.264 13.82 7.938 29.46 12.135 45.228 12.135 7.957 0 15.933-1.056 23.704-3.139 48.508-12.998 77.396-63.037 64.398-111.542zm-144.845-360.598c11.508 26.657 13.836 56.642 6.177 85.186l-21.632 82.724c-.542.024-16.525 0-16.525 0l-6.259-23.618zm-103.36 85.13c-7.647-28.5-5.316-58.476 6.191-85.131l44.498 167.91s-28.502.024-29.043 0zm16.763 320.985c-5.744 17.021-17.117 31.107-32.048 39.686-10.794 6.199-22.989 9.477-35.268 9.477-6.21 0-12.443-.827-18.528-2.457-37.853-10.144-60.397-49.192-50.255-87.047 4.904-18.304 16.671-33.618 33.133-43.122 16.46-9.504 35.788-11.99 54.098-7.083 12.771 3.496 26.276 1.861 37.696-4.691 11.28-6.471 19.349-16.952 22.715-29.498l5.185-19.218 10.931 40.776zm161.869 46.705c-6.085 1.63-12.318 2.457-18.528 2.457-12.277 0-24.473-3.277-35.266-9.477-14.932-8.577-26.304-22.664-32.049-39.686l-58.497-218.206h21.734l25.216 93.457c3.37 12.56 11.438 23.041 22.719 29.512 11.421 6.551 24.923 8.185 37.704 4.689 18.305-4.905 37.629-2.421 54.09 7.084 16.462 9.505 28.229 24.819 33.133 43.123 10.143 37.856-12.402 76.904-50.256 87.047z"/><path id="XMLID_1030_" d="m128 313.644v-66.778c0-5.522-4.478-10-10-10s-10 4.478-10 10v56.778h-76v-24.711h35.336c5.522 0 10-4.478 10-10s-4.478-10-10-10h-35.336v-24.711h14c5.522 0 10-4.478 10-10s-4.478-10-10-10h-14v-24.711h35.336c5.522 0 10-4.478 10-10s-4.478-10-10-10h-35.336v-24.711h14c5.522 0 10-4.478 10-10s-4.478-10-10-10h-14v-24.711h76v56.777c0 5.522 4.478 10 10 10s10-4.478 10-10v-56.777h2c5.522 0 10-4.478 10-10s-4.478-10-10-10h-26v-60h6c5.522 0 10-4.478 10-10s-4.478-10-10-10h-80c-5.522 0-10 4.478-10 10s4.478 10 10 10h6v60h-26c-5.522 0-10 4.478-10 10s4.478 10 10 10h2v213.555c0 5.522 4.478 10 10 10h14v46c0 5.522 4.478 10 10 10h14v88.63c0 5.522 4.478 10 10 10s10-4.478 10-10v-88.63h14c5.522 0 10-4.478 10-10v-46h14c5.522 0 10-4.478 10-10zm-72-293.555h28v60h-28zm28 339.555h-28v-36h28z"/><path id="XMLID_1032_" d="m117.999 191.869c-2.63 0-5.21 1.061-7.07 2.931-1.86 1.859-2.93 4.439-2.93 7.069 0 2.631 1.069 5.211 2.93 7.07 1.86 1.86 4.44 2.93 7.07 2.93s5.21-1.069 7.069-2.93c1.86-1.87 2.931-4.439 2.931-7.07 0-2.63-1.07-5.21-2.931-7.069-1.859-1.871-4.439-2.931-7.069-2.931z"/></g></g></svg>